<?xml version="1.0" encoding="UTF-8" standalone="no"?>
<svg version="1.0" xmlns="http://www.w3.org/2000/svg" 
     width="512.000000pt" height="512.000000pt" 
     viewBox="0 0 512.000000 512.000000" 
     preserveAspectRatio="xMidYMid meet">

  <g transform="translate(0.000000,512.000000) scale(0.100000,-0.100000)" stroke="none">
    
    <!-- Outer circle (black) -->
    <path d="M2310 5109 c-502 -55 -974 -249 -1355 -556 -129 -104 -340 -321 -433 -445 -265 -354 -434 -758 -498 -1193 -22 -147 -29 -428 -15 -575 42 -433 180 -833 405 -1174 414 -629 1047 -1032 1791 -1142 147 -22 428 -29 575 -15 433 42 833 180 1174 405 629 414 1032 1047 1142 1791 22 147 29 428 15 575 -51 524 -238 988 -558 1385 -104 129 -321 340 -445 433 -354 265 -755 432 -1193 498 -121 18 -487 26 -605 13z" 
          fill="black"/>
    
    <!-- Inner triangle (white) -->
    <path d="M3219 2761 l631 -1107 -1265 -4 -1265 0 632 1107 c348 609 634 1107 636 1107 1 0 287 -498 631 -1103z" 
          fill="white"/>

  </g>
</svg>
